# 3ds Max Wavefront OBJ Exporter v0.97b - (c)2007 guruware
# 创建的文件:02.11.2018 15:06:39

mtllib aa.mtl

#
# object Tube001
#

v  17.3205 0.0000 -10.0000
v  17.7402 1.0000 -9.2350
v  17.7402 0.0000 -9.2350
v  17.3205 1.0000 -10.0000
v  17.7402 2.0000 -9.2350
v  17.3205 2.0000 -10.0000
v  17.7402 3.0000 -9.2350
v  17.3205 3.0000 -10.0000
v  17.7402 4.0000 -9.2350
v  17.3205 4.0000 -10.0000
v  17.7402 5.0000 -9.2350
v  17.3205 5.0000 -10.0000
v  4.4351 5.0000 -2.3087
v  4.3301 5.0000 -2.5000
v  4.4351 4.0000 -2.3087
v  4.3301 4.0000 -2.5000
v  4.4351 3.0000 -2.3087
v  4.3301 3.0000 -2.5000
v  4.4351 2.0000 -2.3087
v  4.3301 2.0000 -2.5000
v  4.4351 1.0000 -2.3087
v  4.3301 1.0000 -2.5000
v  4.4351 0.0000 -2.3087
v  4.3301 0.0000 -2.5000
v  18.1262 1.0000 -8.4524
v  18.1262 0.0000 -8.4524
v  18.1262 2.0000 -8.4524
v  18.1262 3.0000 -8.4524
v  18.1262 4.0000 -8.4524
v  18.1262 5.0000 -8.4524
v  4.5315 5.0000 -2.1131
v  4.5315 4.0000 -2.1131
v  4.5315 3.0000 -2.1131
v  4.5315 2.0000 -2.1131
v  4.5315 1.0000 -2.1131
v  4.5315 0.0000 -2.1131
v  18.4776 1.0000 -7.6537
v  18.4776 0.0000 -7.6537
v  18.4776 2.0000 -7.6537
v  18.4776 3.0000 -7.6537
v  18.4776 4.0000 -7.6537
v  18.4776 5.0000 -7.6537
v  4.6194 5.0000 -1.9134
v  4.6194 4.0000 -1.9134
v  4.6194 3.0000 -1.9134
v  4.6194 2.0000 -1.9134
v  4.6194 1.0000 -1.9134
v  4.6194 0.0000 -1.9134
v  18.7939 1.0000 -6.8404
v  18.7939 0.0000 -6.8404
v  18.7939 2.0000 -6.8404
v  18.7939 3.0000 -6.8404
v  18.7939 4.0000 -6.8404
v  18.7939 5.0000 -6.8404
v  4.6985 5.0000 -1.7101
v  4.6985 4.0000 -1.7101
v  4.6985 3.0000 -1.7101
v  4.6985 2.0000 -1.7101
v  4.6985 1.0000 -1.7101
v  4.6985 0.0000 -1.7101
v  19.0743 1.0000 -6.0141
v  19.0743 0.0000 -6.0141
v  19.0743 2.0000 -6.0141
v  19.0743 3.0000 -6.0141
v  19.0743 4.0000 -6.0141
v  19.0743 5.0000 -6.0141
v  4.7686 5.0000 -1.5035
v  4.7686 4.0000 -1.5035
v  4.7686 3.0000 -1.5035
v  4.7686 2.0000 -1.5035
v  4.7686 1.0000 -1.5035
v  4.7686 0.0000 -1.5035
v  19.3185 1.0000 -5.1764
v  19.3185 0.0000 -5.1764
v  19.3185 2.0000 -5.1764
v  19.3185 3.0000 -5.1764
v  19.3185 4.0000 -5.1764
v  19.3185 5.0000 -5.1764
v  4.8296 5.0000 -1.2941
v  4.8296 4.0000 -1.2941
v  4.8296 3.0000 -1.2941
v  4.8296 2.0000 -1.2941
v  4.8296 1.0000 -1.2941
v  4.8296 0.0000 -1.2941
v  19.5259 1.0000 -4.3288
v  19.5259 0.0000 -4.3288
v  19.5259 2.0000 -4.3288
v  19.5259 3.0000 -4.3288
v  19.5259 4.0000 -4.3288
v  19.5259 5.0000 -4.3288
v  4.8815 5.0000 -1.0822
v  4.8815 4.0000 -1.0822
v  4.8815 3.0000 -1.0822
v  4.8815 2.0000 -1.0822
v  4.8815 1.0000 -1.0822
v  4.8815 0.0000 -1.0822
v  19.6962 1.0000 -3.4730
v  19.6962 0.0000 -3.4730
v  19.6962 2.0000 -3.4730
v  19.6962 3.0000 -3.4730
v  19.6962 4.0000 -3.4730
v  19.6962 5.0000 -3.4730
v  4.9240 5.0000 -0.8682
v  4.9240 4.0000 -0.8682
v  4.9240 3.0000 -0.8682
v  4.9240 2.0000 -0.8682
v  4.9240 1.0000 -0.8682
v  4.9240 0.0000 -0.8682
v  19.8289 1.0000 -2.6105
v  19.8289 0.0000 -2.6105
v  19.8289 2.0000 -2.6105
v  19.8289 3.0000 -2.6105
v  19.8289 4.0000 -2.6105
v  19.8289 5.0000 -2.6105
v  4.9572 5.0000 -0.6526
v  4.9572 4.0000 -0.6526
v  4.9572 3.0000 -0.6526
v  4.9572 2.0000 -0.6526
v  4.9572 1.0000 -0.6526
v  4.9572 0.0000 -0.6526
v  19.9239 1.0000 -1.7431
v  19.9239 0.0000 -1.7431
v  19.9239 2.0000 -1.7431
v  19.9239 3.0000 -1.7431
v  19.9239 4.0000 -1.7431
v  19.9239 5.0000 -1.7431
v  4.9810 5.0000 -0.4358
v  4.9810 4.0000 -0.4358
v  4.9810 3.0000 -0.4358
v  4.9810 2.0000 -0.4358
v  4.9810 1.0000 -0.4358
v  4.9810 0.0000 -0.4358
v  19.9810 1.0000 -0.8724
v  19.9810 0.0000 -0.8724
v  19.9810 2.0000 -0.8724
v  19.9810 3.0000 -0.8724
v  19.9810 4.0000 -0.8724
v  19.9810 5.0000 -0.8724
v  4.9952 5.0000 -0.2181
v  4.9952 4.0000 -0.2181
v  4.9952 3.0000 -0.2181
v  4.9952 2.0000 -0.2181
v  4.9952 1.0000 -0.2181
v  4.9952 0.0000 -0.2181
v  20.0000 1.0000 -0.0000
v  20.0000 0.0000 -0.0000
v  20.0000 2.0000 -0.0000
v  20.0000 3.0000 -0.0000
v  20.0000 4.0000 -0.0000
v  20.0000 5.0000 -0.0000
v  5.0000 5.0000 -0.0000
v  5.0000 4.0000 -0.0000
v  5.0000 3.0000 -0.0000
v  5.0000 2.0000 -0.0000
v  5.0000 1.0000 -0.0000
v  5.0000 0.0000 -0.0000
v  10.8253 2.5000 -6.2500
v  12.5000 2.5000 -0.0000
# 158 vertices

vn 0.8767 0.0000 -0.4810
vn 0.8870 0.0000 -0.4617
vn 0.0000 1.0000 -0.0000
vn -0.8767 0.0000 0.4810
vn -0.8870 0.0000 0.4617
vn 0.0000 -1.0000 -0.0000
vn 0.9063 0.0000 -0.4226
vn -0.9063 0.0000 0.4226
vn 0.9239 0.0000 -0.3827
vn -0.9239 0.0000 0.3827
vn 0.9397 0.0000 -0.3420
vn -0.9397 0.0000 0.3420
vn 0.9537 0.0000 -0.3007
vn -0.9537 0.0000 0.3007
vn 0.9659 0.0000 -0.2588
vn -0.9659 0.0000 0.2588
vn 0.9763 0.0000 -0.2164
vn -0.9763 0.0000 0.2164
vn 0.9848 0.0000 -0.1736
vn -0.9848 0.0000 0.1736
vn 0.9914 0.0000 -0.1305
vn -0.9914 0.0000 0.1305
vn 0.9962 0.0000 -0.0872
vn -0.9962 0.0000 0.0872
vn 0.9990 0.0000 -0.0436
vn -0.9990 0.0000 0.0436
vn 0.9998 0.0000 -0.0218
vn -0.9998 0.0000 0.0218
vn -0.5000 0.0000 -0.8660
vn -0.5000 -0.0000 -0.8660
vn 0.0000 0.0000 1.0000
# 31 vertex normals

vt 10.4720 0.0000 0.0000
vt 9.5993 1.0000 0.0000
vt 9.5993 0.0000 0.0000
vt 10.4720 1.0000 0.0000
vt 9.5993 2.0000 0.0000
vt 10.4720 2.0000 0.0000
vt 9.5993 3.0000 0.0000
vt 10.4720 3.0000 0.0000
vt 9.5993 4.0000 0.0000
vt 10.4720 4.0000 0.0000
vt 9.5993 5.0000 0.0000
vt 10.4720 5.0000 0.0000
vt 9.5993 20.0000 0.0000
vt 10.4720 20.0000 0.0000
vt 9.5993 21.0000 0.0000
vt 10.4720 21.0000 0.0000
vt 9.5993 22.0000 0.0000
vt 10.4720 22.0000 0.0000
vt 9.5993 23.0000 0.0000
vt 10.4720 23.0000 0.0000
vt 9.5993 24.0000 0.0000
vt 10.4720 24.0000 0.0000
vt 9.5993 25.0000 0.0000
vt 10.4720 25.0000 0.0000
vt 9.5993 40.0000 0.0000
vt 10.4720 40.0000 0.0000
vt 8.7266 1.0000 0.0000
vt 8.7266 0.0000 0.0000
vt 8.7266 2.0000 0.0000
vt 8.7266 3.0000 0.0000
vt 8.7266 4.0000 0.0000
vt 8.7266 5.0000 0.0000
vt 8.7266 20.0000 0.0000
vt 8.7266 21.0000 0.0000
vt 8.7266 22.0000 0.0000
vt 8.7266 23.0000 0.0000
vt 8.7266 24.0000 0.0000
vt 8.7266 25.0000 0.0000
vt 8.7266 40.0000 0.0000
vt 7.8540 1.0000 0.0000
vt 7.8540 0.0000 0.0000
vt 7.8540 2.0000 0.0000
vt 7.8540 3.0000 0.0000
vt 7.8540 4.0000 0.0000
vt 7.8540 5.0000 0.0000
vt 7.8540 20.0000 0.0000
vt 7.8540 21.0000 0.0000
vt 7.8540 22.0000 0.0000
vt 7.8540 23.0000 0.0000
vt 7.8540 24.0000 0.0000
vt 7.8540 25.0000 0.0000
vt 7.8540 40.0000 0.0000
vt 6.9813 1.0000 0.0000
vt 6.9813 0.0000 0.0000
vt 6.9813 2.0000 0.0000
vt 6.9813 3.0000 0.0000
vt 6.9813 4.0000 0.0000
vt 6.9813 5.0000 0.0000
vt 6.9813 20.0000 0.0000
vt 6.9813 21.0000 0.0000
vt 6.9813 22.0000 0.0000
vt 6.9813 23.0000 0.0000
vt 6.9813 24.0000 0.0000
vt 6.9813 25.0000 0.0000
vt 6.9813 40.0000 0.0000
vt 6.1087 1.0000 0.0000
vt 6.1087 0.0000 0.0000
vt 6.1087 2.0000 0.0000
vt 6.1087 3.0000 0.0000
vt 6.1087 4.0000 0.0000
vt 6.1087 5.0000 0.0000
vt 6.1087 20.0000 0.0000
vt 6.1087 21.0000 0.0000
vt 6.1087 22.0000 0.0000
vt 6.1087 23.0000 0.0000
vt 6.1087 24.0000 0.0000
vt 6.1087 25.0000 0.0000
vt 6.1087 40.0000 0.0000
vt 5.2360 1.0000 0.0000
vt 5.2360 0.0000 0.0000
vt 5.2360 2.0000 0.0000
vt 5.2360 3.0000 0.0000
vt 5.2360 4.0000 0.0000
vt 5.2360 5.0000 0.0000
vt 5.2360 20.0000 0.0000
vt 5.2360 21.0000 0.0000
vt 5.2360 22.0000 0.0000
vt 5.2360 23.0000 0.0000
vt 5.2360 24.0000 0.0000
vt 5.2360 25.0000 0.0000
vt 5.2360 40.0000 0.0000
vt 4.3633 1.0000 0.0000
vt 4.3633 0.0000 0.0000
vt 4.3633 2.0000 0.0000
vt 4.3633 3.0000 0.0000
vt 4.3633 4.0000 0.0000
vt 4.3633 5.0000 0.0000
vt 4.3633 20.0000 0.0000
vt 4.3633 21.0000 0.0000
vt 4.3633 22.0000 0.0000
vt 4.3633 23.0000 0.0000
vt 4.3633 24.0000 0.0000
vt 4.3633 25.0000 0.0000
vt 4.3633 40.0000 0.0000
vt 3.4907 1.0000 0.0000
vt 3.4907 0.0000 0.0000
vt 3.4907 2.0000 0.0000
vt 3.4907 3.0000 0.0000
vt 3.4907 4.0000 0.0000
vt 3.4907 5.0000 0.0000
vt 3.4907 20.0000 0.0000
vt 3.4907 21.0000 0.0000
vt 3.4907 22.0000 0.0000
vt 3.4907 23.0000 0.0000
vt 3.4907 24.0000 0.0000
vt 3.4907 25.0000 0.0000
vt 3.4907 40.0000 0.0000
vt 2.6180 1.0000 0.0000
vt 2.6180 0.0000 0.0000
vt 2.6180 2.0000 0.0000
vt 2.6180 3.0000 0.0000
vt 2.6180 4.0000 0.0000
vt 2.6180 5.0000 0.0000
vt 2.6180 20.0000 0.0000
vt 2.6180 21.0000 0.0000
vt 2.6180 22.0000 0.0000
vt 2.6180 23.0000 0.0000
vt 2.6180 24.0000 0.0000
vt 2.6180 25.0000 0.0000
vt 2.6180 40.0000 0.0000
vt 1.7453 1.0000 0.0000
vt 1.7453 0.0000 0.0000
vt 1.7453 2.0000 0.0000
vt 1.7453 3.0000 0.0000
vt 1.7453 4.0000 0.0000
vt 1.7453 5.0000 0.0000
vt 1.7453 20.0000 0.0000
vt 1.7453 21.0000 0.0000
vt 1.7453 22.0000 0.0000
vt 1.7453 23.0000 0.0000
vt 1.7453 24.0000 0.0000
vt 1.7453 25.0000 0.0000
vt 1.7453 40.0000 0.0000
vt 0.8727 1.0000 0.0000
vt 0.8727 0.0000 0.0000
vt 0.8727 2.0000 0.0000
vt 0.8727 3.0000 0.0000
vt 0.8727 4.0000 0.0000
vt 0.8727 5.0000 0.0000
vt 0.8727 20.0000 0.0000
vt 0.8727 21.0000 0.0000
vt 0.8727 22.0000 0.0000
vt 0.8727 23.0000 0.0000
vt 0.8727 24.0000 0.0000
vt 0.8727 25.0000 0.0000
vt 0.8727 40.0000 0.0000
vt 0.0000 1.0000 0.0000
vt 0.0000 0.0000 0.0000
vt 0.0000 2.0000 0.0000
vt 0.0000 3.0000 0.0000
vt 0.0000 4.0000 0.0000
vt 0.0000 5.0000 0.0000
vt 0.0000 20.0000 0.0000
vt 0.0000 21.0000 0.0000
vt 0.0000 22.0000 0.0000
vt 0.0000 23.0000 0.0000
vt 0.0000 24.0000 0.0000
vt 0.0000 25.0000 0.0000
vt 0.0000 40.0000 0.0000
vt 7.5000 2.5000 -0.0000
vt 0.0000 1.0000 -0.0000
vt 0.0000 2.0000 -0.0000
vt 0.0000 3.0000 -0.0000
vt 0.0000 4.0000 -0.0000
vt 0.0000 5.0000 -0.0000
vt 15.0000 5.0000 -0.0000
vt 15.0000 4.0000 -0.0000
vt 15.0000 3.0000 -0.0000
vt 15.0000 2.0000 -0.0000
vt 15.0000 1.0000 -0.0000
vt 15.0000 0.0000 0.0000
# 181 texture coords

o Tube001
g Tube001
usemtl wire_225198087
s 2
f 1/1/1 2/2/2 3/3/2 
f 1/1/1 4/4/1 2/2/2 
f 4/4/1 5/5/2 2/2/2 
f 4/4/1 6/6/1 5/5/2 
f 6/6/1 7/7/2 5/5/2 
f 6/6/1 8/8/1 7/7/2 
f 8/8/1 9/9/2 7/7/2 
f 8/8/1 10/10/1 9/9/2 
f 10/10/1 11/11/2 9/9/2 
f 10/10/1 12/12/1 11/11/2 
s 4
f 12/12/3 13/13/3 11/11/3 
f 12/12/3 14/14/3 13/13/3 
s 2
f 14/14/4 15/15/5 13/13/5 
f 14/14/4 16/16/4 15/15/5 
f 16/16/4 17/17/5 15/15/5 
f 16/16/4 18/18/4 17/17/5 
f 18/18/4 19/19/5 17/17/5 
f 18/18/4 20/20/4 19/19/5 
f 20/20/4 21/21/5 19/19/5 
f 20/20/4 22/22/4 21/21/5 
f 22/22/4 23/23/5 21/21/5 
f 22/22/4 24/24/4 23/23/5 
s 4
f 24/24/6 3/25/6 23/23/6 
f 24/24/6 1/26/6 3/25/6 
s 2
f 3/3/2 25/27/7 26/28/7 
f 3/3/2 2/2/2 25/27/7 
f 2/2/2 27/29/7 25/27/7 
f 2/2/2 5/5/2 27/29/7 
f 5/5/2 28/30/7 27/29/7 
f 5/5/2 7/7/2 28/30/7 
f 7/7/2 29/31/7 28/30/7 
f 7/7/2 9/9/2 29/31/7 
f 9/9/2 30/32/7 29/31/7 
f 9/9/2 11/11/2 30/32/7 
s 4
f 11/11/3 31/33/3 30/32/3 
f 11/11/3 13/13/3 31/33/3 
s 2
f 13/13/5 32/34/8 31/33/8 
f 13/13/5 15/15/5 32/34/8 
f 15/15/5 33/35/8 32/34/8 
f 15/15/5 17/17/5 33/35/8 
f 17/17/5 34/36/8 33/35/8 
f 17/17/5 19/19/5 34/36/8 
f 19/19/5 35/37/8 34/36/8 
f 19/19/5 21/21/5 35/37/8 
f 21/21/5 36/38/8 35/37/8 
f 21/21/5 23/23/5 36/38/8 
s 4
f 23/23/6 26/39/6 36/38/6 
f 23/23/6 3/25/6 26/39/6 
s 2
f 26/28/7 37/40/9 38/41/9 
f 26/28/7 25/27/7 37/40/9 
f 25/27/7 39/42/9 37/40/9 
f 25/27/7 27/29/7 39/42/9 
f 27/29/7 40/43/9 39/42/9 
f 27/29/7 28/30/7 40/43/9 
f 28/30/7 41/44/9 40/43/9 
f 28/30/7 29/31/7 41/44/9 
f 29/31/7 42/45/9 41/44/9 
f 29/31/7 30/32/7 42/45/9 
s 4
f 30/32/3 43/46/3 42/45/3 
f 30/32/3 31/33/3 43/46/3 
s 2
f 31/33/8 44/47/10 43/46/10 
f 31/33/8 32/34/8 44/47/10 
f 32/34/8 45/48/10 44/47/10 
f 32/34/8 33/35/8 45/48/10 
f 33/35/8 46/49/10 45/48/10 
f 33/35/8 34/36/8 46/49/10 
f 34/36/8 47/50/10 46/49/10 
f 34/36/8 35/37/8 47/50/10 
f 35/37/8 48/51/10 47/50/10 
f 35/37/8 36/38/8 48/51/10 
s 4
f 36/38/6 38/52/6 48/51/6 
f 36/38/6 26/39/6 38/52/6 
s 2
f 38/41/9 49/53/11 50/54/11 
f 38/41/9 37/40/9 49/53/11 
f 37/40/9 51/55/11 49/53/11 
f 37/40/9 39/42/9 51/55/11 
f 39/42/9 52/56/11 51/55/11 
f 39/42/9 40/43/9 52/56/11 
f 40/43/9 53/57/11 52/56/11 
f 40/43/9 41/44/9 53/57/11 
f 41/44/9 54/58/11 53/57/11 
f 41/44/9 42/45/9 54/58/11 
s 4
f 42/45/3 55/59/3 54/58/3 
f 42/45/3 43/46/3 55/59/3 
s 2
f 43/46/10 56/60/12 55/59/12 
f 43/46/10 44/47/10 56/60/12 
f 44/47/10 57/61/12 56/60/12 
f 44/47/10 45/48/10 57/61/12 
f 45/48/10 58/62/12 57/61/12 
f 45/48/10 46/49/10 58/62/12 
f 46/49/10 59/63/12 58/62/12 
f 46/49/10 47/50/10 59/63/12 
f 47/50/10 60/64/12 59/63/12 
f 47/50/10 48/51/10 60/64/12 
s 4
f 48/51/6 50/65/6 60/64/6 
f 48/51/6 38/52/6 50/65/6 
s 2
f 50/54/11 61/66/13 62/67/13 
f 50/54/11 49/53/11 61/66/13 
f 49/53/11 63/68/13 61/66/13 
f 49/53/11 51/55/11 63/68/13 
f 51/55/11 64/69/13 63/68/13 
f 51/55/11 52/56/11 64/69/13 
f 52/56/11 65/70/13 64/69/13 
f 52/56/11 53/57/11 65/70/13 
f 53/57/11 66/71/13 65/70/13 
f 53/57/11 54/58/11 66/71/13 
s 4
f 54/58/3 67/72/3 66/71/3 
f 54/58/3 55/59/3 67/72/3 
s 2
f 55/59/12 68/73/14 67/72/14 
f 55/59/12 56/60/12 68/73/14 
f 56/60/12 69/74/14 68/73/14 
f 56/60/12 57/61/12 69/74/14 
f 57/61/12 70/75/14 69/74/14 
f 57/61/12 58/62/12 70/75/14 
f 58/62/12 71/76/14 70/75/14 
f 58/62/12 59/63/12 71/76/14 
f 59/63/12 72/77/14 71/76/14 
f 59/63/12 60/64/12 72/77/14 
s 4
f 60/64/6 62/78/6 72/77/6 
f 60/64/6 50/65/6 62/78/6 
s 2
f 62/67/13 73/79/15 74/80/15 
f 62/67/13 61/66/13 73/79/15 
f 61/66/13 75/81/15 73/79/15 
f 61/66/13 63/68/13 75/81/15 
f 63/68/13 76/82/15 75/81/15 
f 63/68/13 64/69/13 76/82/15 
f 64/69/13 77/83/15 76/82/15 
f 64/69/13 65/70/13 77/83/15 
f 65/70/13 78/84/15 77/83/15 
f 65/70/13 66/71/13 78/84/15 
s 4
f 66/71/3 79/85/3 78/84/3 
f 66/71/3 67/72/3 79/85/3 
s 2
f 67/72/14 80/86/16 79/85/16 
f 67/72/14 68/73/14 80/86/16 
f 68/73/14 81/87/16 80/86/16 
f 68/73/14 69/74/14 81/87/16 
f 69/74/14 82/88/16 81/87/16 
f 69/74/14 70/75/14 82/88/16 
f 70/75/14 83/89/16 82/88/16 
f 70/75/14 71/76/14 83/89/16 
f 71/76/14 84/90/16 83/89/16 
f 71/76/14 72/77/14 84/90/16 
s 4
f 72/77/6 74/91/6 84/90/6 
f 72/77/6 62/78/6 74/91/6 
s 2
f 74/80/15 85/92/17 86/93/17 
f 74/80/15 73/79/15 85/92/17 
f 73/79/15 87/94/17 85/92/17 
f 73/79/15 75/81/15 87/94/17 
f 75/81/15 88/95/17 87/94/17 
f 75/81/15 76/82/15 88/95/17 
f 76/82/15 89/96/17 88/95/17 
f 76/82/15 77/83/15 89/96/17 
f 77/83/15 90/97/17 89/96/17 
f 77/83/15 78/84/15 90/97/17 
s 4
f 78/84/3 91/98/3 90/97/3 
f 78/84/3 79/85/3 91/98/3 
s 2
f 79/85/16 92/99/18 91/98/18 
f 79/85/16 80/86/16 92/99/18 
f 80/86/16 93/100/18 92/99/18 
f 80/86/16 81/87/16 93/100/18 
f 81/87/16 94/101/18 93/100/18 
f 81/87/16 82/88/16 94/101/18 
f 82/88/16 95/102/18 94/101/18 
f 82/88/16 83/89/16 95/102/18 
f 83/89/16 96/103/18 95/102/18 
f 83/89/16 84/90/16 96/103/18 
s 4
f 84/90/6 86/104/6 96/103/6 
f 84/90/6 74/91/6 86/104/6 
s 2
f 86/93/17 97/105/19 98/106/19 
f 86/93/17 85/92/17 97/105/19 
f 85/92/17 99/107/19 97/105/19 
f 85/92/17 87/94/17 99/107/19 
f 87/94/17 100/108/19 99/107/19 
f 87/94/17 88/95/17 100/108/19 
f 88/95/17 101/109/19 100/108/19 
f 88/95/17 89/96/17 101/109/19 
f 89/96/17 102/110/19 101/109/19 
f 89/96/17 90/97/17 102/110/19 
s 4
f 90/97/3 103/111/3 102/110/3 
f 90/97/3 91/98/3 103/111/3 
s 2
f 91/98/18 104/112/20 103/111/20 
f 91/98/18 92/99/18 104/112/20 
f 92/99/18 105/113/20 104/112/20 
f 92/99/18 93/100/18 105/113/20 
f 93/100/18 106/114/20 105/113/20 
f 93/100/18 94/101/18 106/114/20 
f 94/101/18 107/115/20 106/114/20 
f 94/101/18 95/102/18 107/115/20 
f 95/102/18 108/116/20 107/115/20 
f 95/102/18 96/103/18 108/116/20 
s 4
f 96/103/6 98/117/6 108/116/6 
f 96/103/6 86/104/6 98/117/6 
s 2
f 98/106/19 109/118/21 110/119/21 
f 98/106/19 97/105/19 109/118/21 
f 97/105/19 111/120/21 109/118/21 
f 97/105/19 99/107/19 111/120/21 
f 99/107/19 112/121/21 111/120/21 
f 99/107/19 100/108/19 112/121/21 
f 100/108/19 113/122/21 112/121/21 
f 100/108/19 101/109/19 113/122/21 
f 101/109/19 114/123/21 113/122/21 
f 101/109/19 102/110/19 114/123/21 
s 4
f 102/110/3 115/124/3 114/123/3 
f 102/110/3 103/111/3 115/124/3 
s 2
f 103/111/20 116/125/22 115/124/22 
f 103/111/20 104/112/20 116/125/22 
f 104/112/20 117/126/22 116/125/22 
f 104/112/20 105/113/20 117/126/22 
f 105/113/20 118/127/22 117/126/22 
f 105/113/20 106/114/20 118/127/22 
f 106/114/20 119/128/22 118/127/22 
f 106/114/20 107/115/20 119/128/22 
f 107/115/20 120/129/22 119/128/22 
f 107/115/20 108/116/20 120/129/22 
s 4
f 108/116/6 110/130/6 120/129/6 
f 108/116/6 98/117/6 110/130/6 
s 2
f 110/119/21 121/131/23 122/132/23 
f 110/119/21 109/118/21 121/131/23 
f 109/118/21 123/133/23 121/131/23 
f 109/118/21 111/120/21 123/133/23 
f 111/120/21 124/134/23 123/133/23 
f 111/120/21 112/121/21 124/134/23 
f 112/121/21 125/135/23 124/134/23 
f 112/121/21 113/122/21 125/135/23 
f 113/122/21 126/136/23 125/135/23 
f 113/122/21 114/123/21 126/136/23 
s 4
f 114/123/3 127/137/3 126/136/3 
f 114/123/3 115/124/3 127/137/3 
s 2
f 115/124/22 128/138/24 127/137/24 
f 115/124/22 116/125/22 128/138/24 
f 116/125/22 129/139/24 128/138/24 
f 116/125/22 117/126/22 129/139/24 
f 117/126/22 130/140/24 129/139/24 
f 117/126/22 118/127/22 130/140/24 
f 118/127/22 131/141/24 130/140/24 
f 118/127/22 119/128/22 131/141/24 
f 119/128/22 132/142/24 131/141/24 
f 119/128/22 120/129/22 132/142/24 
s 4
f 120/129/6 122/143/6 132/142/6 
f 120/129/6 110/130/6 122/143/6 
s 2
f 122/132/23 133/144/25 134/145/25 
f 122/132/23 121/131/23 133/144/25 
f 121/131/23 135/146/25 133/144/25 
f 121/131/23 123/133/23 135/146/25 
f 123/133/23 136/147/25 135/146/25 
f 123/133/23 124/134/23 136/147/25 
f 124/134/23 137/148/25 136/147/25 
f 124/134/23 125/135/23 137/148/25 
f 125/135/23 138/149/25 137/148/25 
f 125/135/23 126/136/23 138/149/25 
s 4
f 126/136/3 139/150/3 138/149/3 
f 126/136/3 127/137/3 139/150/3 
s 2
f 127/137/24 140/151/26 139/150/26 
f 127/137/24 128/138/24 140/151/26 
f 128/138/24 141/152/26 140/151/26 
f 128/138/24 129/139/24 141/152/26 
f 129/139/24 142/153/26 141/152/26 
f 129/139/24 130/140/24 142/153/26 
f 130/140/24 143/154/26 142/153/26 
f 130/140/24 131/141/24 143/154/26 
f 131/141/24 144/155/26 143/154/26 
f 131/141/24 132/142/24 144/155/26 
s 4
f 132/142/6 134/156/6 144/155/6 
f 132/142/6 122/143/6 134/156/6 
s 2
f 134/145/25 145/157/27 146/158/27 
f 134/145/25 133/144/25 145/157/27 
f 133/144/25 147/159/27 145/157/27 
f 133/144/25 135/146/25 147/159/27 
f 135/146/25 148/160/27 147/159/27 
f 135/146/25 136/147/25 148/160/27 
f 136/147/25 149/161/27 148/160/27 
f 136/147/25 137/148/25 149/161/27 
f 137/148/25 150/162/27 149/161/27 
f 137/148/25 138/149/25 150/162/27 
s 4
f 138/149/3 151/163/3 150/162/3 
f 138/149/3 139/150/3 151/163/3 
s 2
f 139/150/26 152/164/28 151/163/28 
f 139/150/26 140/151/26 152/164/28 
f 140/151/26 153/165/28 152/164/28 
f 140/151/26 141/152/26 153/165/28 
f 141/152/26 154/166/28 153/165/28 
f 141/152/26 142/153/26 154/166/28 
f 142/153/26 155/167/28 154/166/28 
f 142/153/26 143/154/26 155/167/28 
f 143/154/26 156/168/28 155/167/28 
f 143/154/26 144/155/26 156/168/28 
s 4
f 144/155/6 146/169/6 156/168/6 
f 144/155/6 134/156/6 146/169/6 
s 1
f 157/170/29 4/171/29 1/158/29 
f 157/170/29 6/172/29 4/171/29 
f 157/170/29 8/173/29 6/172/29 
f 157/170/29 10/174/29 8/173/29 
f 157/170/29 12/175/30 10/174/29 
f 157/170/29 14/176/30 12/175/30 
f 157/170/29 16/177/29 14/176/30 
f 157/170/29 18/178/29 16/177/29 
f 157/170/29 20/179/29 18/178/29 
f 157/170/29 22/180/29 20/179/29 
f 157/170/29 24/181/29 22/180/29 
f 157/170/29 1/158/29 24/181/29 
f 158/170/31 146/181/31 145/180/31 
f 158/170/31 145/180/31 147/179/31 
f 158/170/31 147/179/31 148/178/31 
f 158/170/31 148/178/31 149/177/31 
f 158/170/31 149/177/31 150/176/31 
f 158/170/31 150/176/31 151/175/31 
f 158/170/31 151/175/31 152/174/31 
f 158/170/31 152/174/31 153/173/31 
f 158/170/31 153/173/31 154/172/31 
f 158/170/31 154/172/31 155/171/31 
f 158/170/31 155/171/31 156/158/31 
f 158/170/31 156/158/31 146/181/31 
# 312 faces

