# 3ds Max Wavefront OBJ Exporter v0.97b - (c)2007 guruware
# 创建的文件:31.10.2018 20:13:05

#
# object Tube001
#

v  25.3810 0.0000 29.3752
v  25.3810 2.7970 29.3752
v  13.5463 2.7970 36.2080
v  13.5463 0.0000 36.2080
v  25.3810 5.5940 29.3752
v  13.5463 5.5940 36.2080
v  25.3810 8.3909 29.3752
v  13.5463 8.3909 36.2080
v  25.3810 11.1879 29.3752
v  13.5463 11.1879 36.2080
v  25.3810 13.9849 29.3752
v  13.5463 13.9849 36.2080
v  7.1818 13.9849 7.6863
v  3.8628 13.9849 9.6026
v  7.1818 11.1879 7.6863
v  3.8628 11.1879 9.6026
v  7.1818 8.3909 7.6863
v  3.8628 8.3909 9.6026
v  7.1818 5.5940 7.6863
v  3.8628 5.5940 9.6026
v  7.1818 2.7970 7.6863
v  3.8628 2.7970 9.6026
v  7.1818 0.0000 7.6863
v  3.8628 0.0000 9.6026
v  0.0885 2.7970 38.5809
v  0.0885 0.0000 38.5809
v  0.0885 5.5940 38.5809
v  0.0885 8.3909 38.5809
v  0.0885 11.1879 38.5809
v  0.0885 13.9849 38.5809
v  0.0885 13.9849 10.2681
v  0.0885 11.1879 10.2681
v  0.0885 8.3909 10.2681
v  0.0885 5.5940 10.2681
v  0.0885 2.7970 10.2681
v  0.0885 0.0000 10.2681
# 36 vertices

vn 0.5000 0.0000 0.8660
vn 0.3420 0.0000 0.9397
vn 0.0000 1.0000 -0.0000
vn -0.5000 0.0000 -0.8660
vn -0.3420 0.0000 -0.9397
vn 0.0000 -1.0000 -0.0000
vn 0.1736 0.0000 0.9848
vn -0.1736 0.0000 -0.9848
vn 0.7660 0.0000 -0.6428
vn -1.0000 0.0000 -0.0000
# 10 vertex normals

vt 0.0000 0.3889 0.0000
vt 0.0833 0.3889 0.0000
vt 0.0833 0.4444 0.0000
vt 0.0000 0.4444 0.0000
vt 0.1667 0.3889 0.0000
vt 0.1667 0.4444 0.0000
vt 0.2500 0.3889 0.0000
vt 0.2500 0.4444 0.0000
vt 0.3333 0.3889 0.0000
vt 0.3333 0.4444 0.0000
vt 0.4167 0.3889 0.0000
vt 0.4167 0.4444 0.0000
vt 0.5000 0.3889 0.0000
vt 0.5000 0.4444 0.0000
vt 0.5833 0.3889 0.0000
vt 0.5833 0.4444 0.0000
vt 0.6667 0.3889 0.0000
vt 0.6667 0.4444 0.0000
vt 0.7500 0.3889 0.0000
vt 0.7500 0.4444 0.0000
vt 0.8333 0.3889 0.0000
vt 0.8333 0.4444 0.0000
vt 0.9167 0.3889 0.0000
vt 0.9167 0.4444 0.0000
vt 1.0000 0.3889 0.0000
vt 1.0000 0.4444 0.0000
vt 0.0833 0.5000 0.0000
vt 0.0000 0.5000 0.0000
vt 0.1667 0.5000 0.0000
vt 0.2500 0.5000 0.0000
vt 0.3333 0.5000 0.0000
vt 0.4167 0.5000 0.0000
vt 0.5000 0.5000 0.0000
vt 0.5833 0.5000 0.0000
vt 0.6667 0.5000 0.0000
vt 0.7500 0.5000 0.0000
vt 0.8333 0.5000 0.0000
vt 0.9167 0.5000 0.0000
vt 1.0000 0.5000 0.0000
# 39 texture coords

g Tube001
f 1/1/1 2/2/1 3/3/2 
f 3/3/2 4/4/2 1/1/1 
f 2/2/1 5/5/1 6/6/2 
f 6/6/2 3/3/2 2/2/1 
f 5/5/1 7/7/1 8/8/2 
f 8/8/2 6/6/2 5/5/1 
f 7/7/1 9/9/1 10/10/2 
f 10/10/2 8/8/2 7/7/1 
f 9/9/1 11/11/1 12/12/2 
f 12/12/2 10/10/2 9/9/1 
f 11/11/3 13/13/3 14/14/3 
f 14/14/3 12/12/3 11/11/3 
f 13/13/4 15/15/4 16/16/5 
f 16/16/5 14/14/5 13/13/4 
f 15/15/4 17/17/4 18/18/5 
f 18/18/5 16/16/5 15/15/4 
f 17/17/4 19/19/4 20/20/5 
f 20/20/5 18/18/5 17/17/4 
f 19/19/4 21/21/4 22/22/5 
f 22/22/5 20/20/5 19/19/4 
f 21/21/4 23/23/4 24/24/5 
f 24/24/5 22/22/5 21/21/4 
f 23/23/6 1/25/6 4/26/6 
f 4/26/6 24/24/6 23/23/6 
f 4/4/2 3/3/2 25/27/7 
f 25/27/7 26/28/7 4/4/2 
f 3/3/2 6/6/2 27/29/7 
f 27/29/7 25/27/7 3/3/2 
f 6/6/2 8/8/2 28/30/7 
f 28/30/7 27/29/7 6/6/2 
f 8/8/2 10/10/2 29/31/7 
f 29/31/7 28/30/7 8/8/2 
f 10/10/2 12/12/2 30/32/7 
f 30/32/7 29/31/7 10/10/2 
f 12/12/3 14/14/3 31/33/3 
f 31/33/3 30/32/3 12/12/3 
f 14/14/5 16/16/5 32/34/8 
f 32/34/8 31/33/8 14/14/5 
f 16/16/5 18/18/5 33/35/8 
f 33/35/8 32/34/8 16/16/5 
f 18/18/5 20/20/5 34/36/8 
f 34/36/8 33/35/8 18/18/5 
f 20/20/5 22/22/5 35/37/8 
f 35/37/8 34/36/8 20/20/5 
f 22/22/5 24/24/5 36/38/8 
f 36/38/8 35/37/8 22/22/5 
f 24/24/6 4/26/6 26/39/6 
f 26/39/6 36/38/6 24/24/6 
f 15/15/9 13/13/9 11/11/9 
f 17/17/9 15/15/9 11/11/9 
f 19/19/9 17/17/9 11/11/9 
f 21/21/9 19/19/9 11/11/9 
f 23/23/9 21/21/9 11/11/9 
f 23/23/9 11/11/9 9/9/9 
f 23/23/9 9/9/9 7/7/9 
f 23/23/9 7/7/9 5/5/9 
f 23/23/9 5/5/9 2/2/9 
f 1/1/9 23/23/9 2/2/9 
f 29/31/10 30/32/10 31/33/10 
f 28/30/10 29/31/10 31/33/10 
f 27/29/10 28/30/10 31/33/10 
f 25/27/10 27/29/10 31/33/10 
f 25/27/10 31/33/10 32/34/10 
f 25/27/10 32/34/10 33/35/10 
f 25/27/10 33/35/10 34/36/10 
f 25/27/10 34/36/10 35/37/10 
f 25/27/10 35/37/10 36/38/10 
f 25/27/10 36/38/10 26/39/10 
# 68 faces

